<?xml version="1.0" encoding="UTF-8" standalone="no"?>
<!-- Created with Inkscape (http://www.inkscape.org/) -->

<svg
   version="1.1"
   id="svg1"
   width="77.898438"
   height="12.078125"
   viewBox="0 0 77.898438 12.078125"
   xmlns="http://www.w3.org/2000/svg"
   xmlns:svg="http://www.w3.org/2000/svg">
  <defs
     id="defs1" />
  <g
     id="g1"
     transform="translate(-20.441406,0.2812498)">
    <g
       id="g2"
       aria-label="03C7χ2248≈"
       transform="matrix(1.3333333,0,0,1.3333333,19.925333,9.0773333)">
      <path
         id="path2"
         d="m 4.5823672,-3.1869063 c 0,-0.796875 -0.046875,-1.59375 -0.3984375,-2.3320312 -0.4570313,-0.9609375 -1.2773438,-1.1132813 -1.6875,-1.1132813 -0.5976563,0 -1.3359375,0.2578125 -1.73437501,1.1835938 -0.328125,0.6914062 -0.375,1.4648437 -0.375,2.2617187 0,0.75 0.046875,1.640625 0.4453125,2.4023438 C 1.2659609,0.02403125 1.9925234,0.22325 2.4847109,0.22325 c 0.5390625,0 1.2890625,-0.2109375 1.734375,-1.16015625 C 4.5354922,-1.6283125 4.5823672,-2.40175 4.5823672,-3.1869063 Z M 2.4847109,5.9375e-4 c -0.3867187,0 -0.984375,-0.24609375 -1.1601562,-1.20703125 -0.1054688,-0.5976563 -0.1054688,-1.5117188 -0.1054688,-2.0976563 0,-0.6445312 0,-1.3007812 0.082031,-1.8398437 0.1875,-1.1835938 0.9257812,-1.265625 1.1835937,-1.265625 0.328125,0 0.984375,0.1757812 1.171875,1.1601562 0.09375,0.5625 0.09375,1.3125 0.09375,1.9453125 0,0.75 0,1.4179688 -0.1054687,2.0625 C 3.4925234,-0.30409375 2.9300234,5.9375e-4 2.4847109,5.9375e-4 Z m 5.390625,-3.50390625 c 0.8085938,-0.2695313 1.3945313,-0.9726563 1.3945313,-1.7578125 0,-0.8203125 -0.8789063,-1.3710938 -1.8398438,-1.3710938 -1.0078125,0 -1.7578125,0.5976563 -1.7578125,1.3476563 0,0.3398437 0.2109375,0.5273437 0.5039063,0.5273437 0.3046875,0 0.5039062,-0.2226562 0.5039062,-0.515625 0,-0.4921875 -0.46875,-0.4921875 -0.609375,-0.4921875 0.3046875,-0.4921875 0.9609375,-0.6210937 1.3242188,-0.6210937 0.4101562,0 0.9492187,0.2226562 0.9492187,1.1132812 0,0.1289063 -0.011719,0.703125 -0.2695312,1.1367188 -0.3046875,0.4804687 -0.6445313,0.515625 -0.890625,0.515625 -0.082031,0.011719 -0.3164063,0.035156 -0.3867188,0.035156 -0.082031,0.011719 -0.1523437,0.023437 -0.1523437,0.1171875 0,0.1171875 0.070312,0.1171875 0.234375,0.1171875 h 0.4453125 c 0.8085937,0 1.1835937,0.6679688 1.1835937,1.6523438 0,1.34765625 -0.6914062,1.640625 -1.125,1.640625 -0.4335937,0 -1.171875,-0.17578125 -1.5234375,-0.76171875 0.3515625,0.0585938 0.65625,-0.1640625 0.65625,-0.53906255 0,-0.3632812 -0.2695312,-0.5625 -0.5625,-0.5625 -0.234375,0 -0.5507812,0.140625 -0.5507812,0.5742188 0,0.9140625 0.9257812,1.5703125 2.0039062,1.5703125 1.21875,0 2.1210938,-0.9140625 2.1210938,-1.921875 0,-0.8203125 -0.6210938,-1.59375 -1.6523438,-1.8046873 z m 2.6484371,0.09375 c 0,2.0625 1.605469,3.6328125 3.457032,3.6328125 1.628906,0 2.601562,-1.3828125 2.601562,-2.5429688 0,-0.1054687 0,-0.1757812 -0.128906,-0.1757812 -0.105469,0 -0.105469,0.070312 -0.117188,0.1640625 -0.08203,1.4296875 -1.148437,2.23828125 -2.226562,2.23828125 -0.609375,0 -2.566406,-0.33984375 -2.566406,-3.30468755 0,-2.9765625 1.945312,-3.3164062 2.554687,-3.3164062 1.078125,0 1.96875,0.9023437 2.167969,2.3671875 0.02344,0.1289062 0.02344,0.1640625 0.164062,0.1640625 0.152344,0 0.152344,-0.035156 0.152344,-0.234375 v -2.3671875 c 0,-0.1640625 0,-0.234375 -0.105469,-0.234375 -0.03516,0 -0.08203,0 -0.164062,0.1171875 l -0.492188,0.7382812 c -0.375,-0.3632812 -0.878906,-0.8554687 -1.839843,-0.8554687 -1.863282,0 -3.457032,1.5820312 -3.457032,3.609375 z M 21.90268,-6.0697188 c 0.08203,-0.1171875 0.08203,-0.140625 0.08203,-0.3398437 h -2.414063 c -1.21875,0 -1.242187,-0.1289063 -1.277343,-0.328125 H 18.04721 l -0.328125,2.0507812 h 0.246094 c 0.02344,-0.1523437 0.117187,-0.7851562 0.246093,-0.9023437 0.07031,-0.058594 0.84375,-0.058594 0.972657,-0.058594 h 2.0625 c -0.105469,0.1640625 -0.890625,1.2421875 -1.113282,1.5703125 -0.890625,1.3476563 -1.21875,2.7304688 -1.21875,3.75000005 0,0.09375 0,0.55078125 0.457032,0.55078125 0.457031,0 0.457031,-0.45703125 0.457031,-0.55078125 V -0.8314375 c 0,-0.5507813 0.02344,-1.1015625 0.105469,-1.640625 0.04687,-0.2226563 0.175781,-1.078125 0.621093,-1.6992188 z m 0,0"
         style="fill:#000000;fill-opacity:1;fill-rule:nonzero;stroke:none" />
      <path
         id="path3"
         d="m 27.952484,-4.0189375 c 0.105469,-0.1054688 0.105469,-0.1289063 0.105469,-0.1523438 0,-0.058594 -0.03516,-0.1171875 -0.117187,-0.1171875 -0.05859,0 -0.105469,0.046875 -0.164063,0.1171875 l -2.285156,2.5429688 c -0.398438,-1.265625 -0.46875,-1.5234375 -0.703125,-2.0507813 -0.105469,-0.2226562 -0.328125,-0.7265625 -1.207031,-0.7265625 -0.574219,0 -0.832032,0.515625 -0.832032,0.65625 0,0.011719 0,0.1054688 0.117188,0.1054688 0.09375,0 0.105469,-0.058594 0.128906,-0.1054688 0.152344,-0.3984375 0.46875,-0.4335937 0.527344,-0.4335937 0.304687,0 0.597656,0.7617187 0.773437,1.1953125 0.316407,0.7851562 0.632813,1.9453125 0.632813,1.96875 0,0.011719 0,0.0351563 -0.08203,0.1171875 L 22.561859,1.6529375 C 22.444672,1.7584062 22.444672,1.7818437 22.444672,1.817 c 0,0.058594 0.05859,0.1171875 0.128906,0.1171875 0.07031,0 0.117188,-0.070312 0.152344,-0.1054688 l 2.285156,-2.5664062 c 0.316406,1.04296875 0.433594,1.4296875 0.679688,1.9804687 0.128906,0.3046875 0.339843,0.796875 1.230468,0.796875 0.574219,0 0.84375,-0.515625 0.84375,-0.6445312 0,-0.046875 -0.01172,-0.1054688 -0.117187,-0.1054688 -0.09375,0 -0.105469,0.035156 -0.140625,0.140625 -0.08203,0.234375 -0.339844,0.3984375 -0.527344,0.3984375 -0.503906,0 -1.183594,-2.41406245 -1.40625,-3.1875 z m 0,0"
         style="fill:#000000;fill-opacity:1;fill-rule:nonzero;stroke:none" />
      <path
         id="path4"
         d="m 32.956391,-0.761125 1.054687,-1.03125 c 1.558594,-1.3710938 2.15625,-1.9101563 2.15625,-2.90625 0,-1.1367188 -0.902344,-1.9335938 -2.121094,-1.9335938 -1.125,0 -1.851562,0.9140625 -1.851562,1.8046875 0,0.5507813 0.492187,0.5507813 0.527344,0.5507813 0.164062,0 0.515625,-0.1171875 0.515625,-0.5273438 0,-0.2578125 -0.1875,-0.515625 -0.527344,-0.515625 -0.08203,0 -0.105469,0 -0.128906,0.011719 0.222656,-0.6445313 0.761718,-1.0195313 1.335937,-1.0195313 0.914063,0 1.335938,0.8085938 1.335938,1.6289063 0,0.796875 -0.492188,1.5820312 -1.042969,2.203125 l -1.910156,2.1328125 c -0.105469,0.10546875 -0.105469,0.12890625 -0.105469,0.36328125 h 3.691406 l 0.28125,-1.73437505 h -0.257812 c -0.04687,0.3046875 -0.117188,0.7382813 -0.210938,0.89062505 -0.07031,0.0820313 -0.726562,0.0820313 -0.949219,0.0820313 z m 4.980468,0 1.054688,-1.03125 c 1.558594,-1.3710938 2.15625,-1.9101563 2.15625,-2.90625 0,-1.1367188 -0.902344,-1.9335938 -2.121094,-1.9335938 -1.125,0 -1.851562,0.9140625 -1.851562,1.8046875 0,0.5507813 0.492187,0.5507813 0.527343,0.5507813 0.164063,0 0.515625,-0.1171875 0.515625,-0.5273438 0,-0.2578125 -0.1875,-0.515625 -0.527343,-0.515625 -0.08203,0 -0.105469,0 -0.128907,0.011719 0.222657,-0.6445313 0.761719,-1.0195313 1.335938,-1.0195313 0.914062,0 1.335937,0.8085938 1.335937,1.6289063 0,0.796875 -0.492187,1.5820312 -1.042968,2.203125 l -1.910157,2.1328125 c -0.105468,0.10546875 -0.105468,0.12890625 -0.105468,0.36328125 h 3.691406 l 0.28125,-1.73437505 h -0.257813 c -0.04687,0.3046875 -0.117187,0.7382813 -0.210937,0.89062505 -0.07031,0.0820313 -0.726563,0.0820313 -0.949219,0.0820313 z m 6.644532,-0.8789063 v 0.86718755 c 0,0.3515625 -0.02344,0.46875 -0.761719,0.46875 h -0.210938 v 0.3046875 c 0.410157,-0.03515625 0.9375,-0.03515625 1.347657,-0.03515625 0.421875,0 0.949218,0 1.359375,0.03515625 v -0.3046875 h -0.210938 c -0.738281,0 -0.761719,-0.1171875 -0.761719,-0.46875 V -1.6400313 h 0.996094 V -1.9564375 H 45.343109 V -6.479875 c 0,-0.1992188 0,-0.2578125 -0.152343,-0.2578125 -0.09375,0 -0.117188,0 -0.199219,0.1171875 l -3.058594,4.6640625 v 0.3164062 z m 0.05859,-0.3164062 H 42.2142 l 2.425781,-3.7148438 z m 3.624024,-2.5898438 c -0.46875,-0.3046875 -0.503906,-0.6445312 -0.503906,-0.8085937 0,-0.609375 0.644531,-1.03125 1.359375,-1.03125 0.726562,0 1.359375,0.515625 1.359375,1.2421875 0,0.5625 -0.386719,1.0429687 -0.984375,1.3945312 z m 1.453125,0.9375 c 0.714844,-0.3632812 1.207031,-0.8789062 1.207031,-1.5351562 0,-0.9257813 -0.890625,-1.4882813 -1.792969,-1.4882813 -0.996093,0 -1.804687,0.7382813 -1.804687,1.6640625 0,0.1757813 0.01172,0.6210938 0.433594,1.0898438 0.105468,0.1289062 0.480468,0.375 0.726562,0.5390625 -0.574219,0.2929687 -1.429687,0.84375 -1.429687,1.8398437 0,1.05468755 1.007812,1.7226563 2.0625,1.7226563 1.125,0 2.0625,-0.83203125 2.0625,-1.8984375 0,-0.3515625 -0.105469,-0.8085938 -0.480469,-1.21875 -0.1875,-0.2109375 -0.351563,-0.3164063 -0.984375,-0.7148438 z m -0.996094,0.421875 1.21875,0.7734375 c 0.28125,0.1875 0.75,0.4921875 0.75,1.1015625 0,0.7382813 -0.75,1.2539063 -1.558594,1.2539063 -0.867187,0 -1.582031,-0.62109375 -1.582031,-1.4414063 0,-0.5859375 0.316406,-1.21875 1.171875,-1.6875 z m 0,0"
         style="fill:#000000;fill-opacity:1;fill-rule:nonzero;stroke:none" />
      <path
         id="path5"
         d="m 58.810883,-4.4994063 c 0,-0.2109375 -0.07031,-0.3046875 -0.140625,-0.3046875 -0.04687,0 -0.128906,0.046875 -0.140625,0.2695313 C 58.494477,-3.8431563 57.791352,-3.433 57.14682,-3.433 c -0.585937,0 -1.078125,-0.3164063 -1.59375,-0.65625 -0.539062,-0.3632813 -1.078125,-0.7265625 -1.722656,-0.7265625 -0.925781,0 -1.664062,0.7148437 -1.664062,1.6289062 0,0.2226563 0.08203,0.2929688 0.140625,0.2929688 0.09375,0 0.140625,-0.1875 0.140625,-0.2226563 0.04687,-0.8320312 0.867187,-1.1367187 1.382812,-1.1367187 0.574219,0 1.078125,0.3046875 1.59375,0.65625 0.539063,0.3632812 1.078125,0.7148437 1.722656,0.7148437 0.925782,0 1.664063,-0.703125 1.664063,-1.6171875 z m 0,2.3320313 c 0,-0.2929688 -0.117188,-0.3164063 -0.140625,-0.3164063 -0.04687,0 -0.128906,0.058594 -0.140625,0.2695313 -0.03516,0.6914062 -0.738281,1.1015625 -1.382813,1.1015625 -0.585937,0 -1.078125,-0.3164063 -1.59375,-0.65625 C 55.014008,-2.1322188 54.474945,-2.4955 53.830414,-2.4955 c -0.925781,0 -1.664062,0.7148437 -1.664062,1.62890625 0,0.22265625 0.08203,0.3046875 0.140625,0.3046875 0.09375,0 0.140625,-0.19921875 0.140625,-0.234375 C 52.494477,-1.6283125 53.314789,-1.933 53.830414,-1.933 c 0.574219,0 1.078125,0.3046875 1.59375,0.65625 0.539063,0.36328125 1.078125,0.71484375 1.722656,0.71484375 0.949219,0 1.664063,-0.73828125 1.664063,-1.60546875 z m 0,0"
         style="fill:#000000;fill-opacity:1;fill-rule:nonzero;stroke:none" />
    </g>
  </g>
</svg>
